<svg width="27" height="27" viewBox="0 0 27 27" fill="none" xmlns="http://www.w3.org/2000/svg">
<g clip-path="url(#clip0_0_5)">
<path d="M21.375 0H5.625C4.13371 0.00178634 2.704 0.594992 1.6495 1.6495C0.594992 2.704 0.00178634 4.13371 0 5.625L0 21.375C0.00178634 22.8663 0.594992 24.296 1.6495 25.3505C2.704 26.405 4.13371 26.9982 5.625 27H21.375C22.8663 26.9982 24.296 26.405 25.3505 25.3505C26.405 24.296 26.9982 22.8663 27 21.375V5.625C26.9982 4.13371 26.405 2.704 25.3505 1.6495C24.296 0.594992 22.8663 0.00178634 21.375 0V0ZM24.75 21.375C24.75 22.2701 24.3944 23.1286 23.7615 23.7615C23.1286 24.3944 22.2701 24.75 21.375 24.75H5.625C4.72989 24.75 3.87145 24.3944 3.23851 23.7615C2.60558 23.1286 2.25 22.2701 2.25 21.375V5.625C2.25 4.72989 2.60558 3.87145 3.23851 3.23851C3.87145 2.60558 4.72989 2.25 5.625 2.25H21.375C22.2701 2.25 23.1286 2.60558 23.7615 3.23851C24.3944 3.87145 24.75 4.72989 24.75 5.625V21.375Z" fill="black"/>
</g>
<defs>
<clipPath id="clip0_0_5">
<rect width="27" height="27" fill="white"/>
</clipPath>
</defs>
</svg>
