<svg width="29" height="28" viewBox="0 0 29 28" fill="none" xmlns="http://www.w3.org/2000/svg">
<path fill-rule="evenodd" clip-rule="evenodd" d="M7.80769 0C8.4237 0 8.92308 0.48216 8.92308 1.07692V2.15385H20.0769V1.07692C20.0769 0.48216 20.5764 0 21.1923 0C21.8082 0 22.3077 0.48216 22.3077 1.07692V2.15385H25.6538C27.5018 2.15385 29 3.6003 29 5.38462V24.7692C29 26.5535 27.5018 28 25.6538 28H3.34615C1.49812 28 0 26.5535 0 24.7692V5.38462C0 3.6003 1.49812 2.15385 3.34615 2.15385H6.69231V1.07692C6.69231 0.48216 7.19169 0 7.80769 0ZM20.0769 4.30769V5.38462C20.0769 5.97938 20.5764 6.46154 21.1923 6.46154C21.8082 6.46154 22.3077 5.97938 22.3077 5.38462V4.30769H25.6538C26.2698 4.30769 26.7692 4.78985 26.7692 5.38462V8.61539H2.23077V5.38462C2.23077 4.78985 2.73015 4.30769 3.34615 4.30769H6.69231V5.38462C6.69231 5.97938 7.19169 6.46154 7.80769 6.46154C8.4237 6.46154 8.92308 5.97938 8.92308 5.38462V4.30769H20.0769ZM2.23077 10.7692V24.7692C2.23077 25.3639 2.73015 25.8462 3.34615 25.8462H25.6538C26.2698 25.8462 26.7692 25.3639 26.7692 24.7692V10.7692H2.23077ZM13.3846 14C13.3846 13.4052 13.884 12.9231 14.5 12.9231C15.116 12.9231 15.6154 13.4052 15.6154 14C15.6154 14.5948 15.116 15.0769 14.5 15.0769C13.884 15.0769 13.3846 14.5948 13.3846 14ZM18.9615 12.9231C18.3455 12.9231 17.8462 13.4052 17.8462 14C17.8462 14.5948 18.3455 15.0769 18.9615 15.0769C19.5775 15.0769 20.0769 14.5948 20.0769 14C20.0769 13.4052 19.5775 12.9231 18.9615 12.9231ZM22.3077 14C22.3077 13.4052 22.8072 12.9231 23.4231 12.9231C24.039 12.9231 24.5385 13.4052 24.5385 14C24.5385 14.5948 24.039 15.0769 23.4231 15.0769C22.8072 15.0769 22.3077 14.5948 22.3077 14ZM23.4231 17.2308C22.8072 17.2308 22.3077 17.7129 22.3077 18.3077C22.3077 18.9025 22.8072 19.3846 23.4231 19.3846C24.039 19.3846 24.5385 18.9025 24.5385 18.3077C24.5385 17.7129 24.039 17.2308 23.4231 17.2308ZM17.8462 18.3077C17.8462 17.7129 18.3455 17.2308 18.9615 17.2308C19.5775 17.2308 20.0769 17.7129 20.0769 18.3077C20.0769 18.9025 19.5775 19.3846 18.9615 19.3846C18.3455 19.3846 17.8462 18.9025 17.8462 18.3077ZM14.5 17.2308C13.884 17.2308 13.3846 17.7129 13.3846 18.3077C13.3846 18.9025 13.884 19.3846 14.5 19.3846C15.116 19.3846 15.6154 18.9025 15.6154 18.3077C15.6154 17.7129 15.116 17.2308 14.5 17.2308ZM8.92308 18.3077C8.92308 17.7129 9.42246 17.2308 10.0385 17.2308C10.6545 17.2308 11.1538 17.7129 11.1538 18.3077C11.1538 18.9025 10.6545 19.3846 10.0385 19.3846C9.42246 19.3846 8.92308 18.9025 8.92308 18.3077ZM5.57692 17.2308C4.96092 17.2308 4.46154 17.7129 4.46154 18.3077C4.46154 18.9025 4.96092 19.3846 5.57692 19.3846C6.19293 19.3846 6.69231 18.9025 6.69231 18.3077C6.69231 17.7129 6.19293 17.2308 5.57692 17.2308ZM4.46154 22.6154C4.46154 22.0207 4.96092 21.5385 5.57692 21.5385C6.19293 21.5385 6.69231 22.0207 6.69231 22.6154C6.69231 23.2101 6.19293 23.6923 5.57692 23.6923C4.96092 23.6923 4.46154 23.2101 4.46154 22.6154ZM10.0385 21.5385C9.42246 21.5385 8.92308 22.0207 8.92308 22.6154C8.92308 23.2101 9.42246 23.6923 10.0385 23.6923C10.6545 23.6923 11.1538 23.2101 11.1538 22.6154C11.1538 22.0207 10.6545 21.5385 10.0385 21.5385ZM13.3846 22.6154C13.3846 22.0207 13.884 21.5385 14.5 21.5385C15.116 21.5385 15.6154 22.0207 15.6154 22.6154C15.6154 23.2101 15.116 23.6923 14.5 23.6923C13.884 23.6923 13.3846 23.2101 13.3846 22.6154ZM18.9615 21.5385C18.3455 21.5385 17.8462 22.0207 17.8462 22.6154C17.8462 23.2101 18.3455 23.6923 18.9615 23.6923C19.5775 23.6923 20.0769 23.2101 20.0769 22.6154C20.0769 22.0207 19.5775 21.5385 18.9615 21.5385Z" fill="black" fill-opacity="0.26"/>
</svg>
