<svg width="230" height="114" viewBox="0 0 230 114" fill="none" xmlns="http://www.w3.org/2000/svg">
<path opacity="0.567" fill-rule="evenodd" clip-rule="evenodd" d="M88.558 11.4968C88.7859 11.4968 89.0139 11.4968 89.2418 11.4968C89.2758 11.7515 89.2379 11.9935 89.1278 12.2229C78.2244 23.8004 67.3207 35.378 56.4172 46.9554C56.1893 47.1169 55.9613 47.1169 55.7334 46.9554C50.7566 41.671 45.7796 36.3863 40.8028 31.1019C40.6927 30.8725 40.6548 30.6304 40.6888 30.3758C40.9286 30.3397 41.1566 30.3799 41.3726 30.4968C46.2735 35.7006 51.1744 40.9045 56.0753 46.1083C66.9487 34.603 77.7762 23.0659 88.558 11.4968Z" fill="#0F5002"/>
<path opacity="0.97" fill-rule="evenodd" clip-rule="evenodd" d="M49.5786 11.7388C58.6407 11.7235 66.9987 14.2649 74.6529 19.363C72.4019 21.8341 70.0844 24.2142 67.7005 26.5032C57.0307 20.7861 46.2031 20.4231 35.2178 25.414C20.2188 33.9867 13.5703 47.3393 15.2724 65.4713C17.9066 79.587 25.4669 89.3895 37.9532 94.879C51.7343 99.6817 64.0435 97.0193 74.8809 86.8917C75.7927 85.8429 76.7045 84.794 77.6163 83.7452C81.4178 83.5436 85.2168 83.584 89.0137 83.8662C80.1121 98.9036 67.233 106.729 50.3764 107.344C30.4293 106.32 16.4484 96.1545 8.4339 76.8471C2.71445 59.1631 5.29785 43.0274 16.1841 28.4395C25.1298 17.9418 36.2612 12.3749 49.5786 11.7388Z" fill="#025E98"/>
<path opacity="0.983" fill-rule="evenodd" clip-rule="evenodd" d="M93.1169 12.707C99.2453 18.6084 105.21 24.74 111.011 31.1019C111.163 31.2634 111.163 31.4246 111.011 31.586C93.1231 50.8215 75.1532 69.9827 57.1011 89.0701C56.949 89.2315 56.7972 89.2315 56.6452 89.0701C44.5329 76.9355 32.4895 64.7126 20.5153 52.4013C20.3634 52.2399 20.3634 52.0787 20.5153 51.9172C26.5211 45.4998 32.5617 39.1262 38.6372 32.7962C44.7506 39.005 50.8291 45.2575 56.8731 51.5542C57.0252 51.7156 57.177 51.7156 57.329 51.5542C69.2218 38.5632 81.1512 25.6142 93.1169 12.707Z" fill="#048132"/>
<path opacity="0.864" fill-rule="evenodd" clip-rule="evenodd" d="M83.5433 13.9172C84.1868 14.074 84.5287 14.4774 84.5691 15.1274C75.0682 25.256 65.5322 35.341 55.9616 45.3822C51.6996 41.0989 47.5965 36.6616 43.6523 32.0701C43.899 31.5173 44.2787 31.2351 44.7921 31.223C48.5564 35.1796 52.2795 39.1732 55.9616 43.2039C65.2363 33.5173 74.4302 23.755 83.5433 13.9172Z" fill="#009DDC"/>
<path opacity="0.942" fill-rule="evenodd" clip-rule="evenodd" d="M130.956 46.1082C135.543 46.0088 136.948 48.1871 135.174 52.6433C133.189 54.2025 131.176 54.2427 129.133 52.7643C127.863 50.7651 127.938 48.8287 129.361 46.9554C129.914 46.6618 130.446 46.3796 130.956 46.1082Z" fill="#302F2E"/>
<path opacity="0.965" fill-rule="evenodd" clip-rule="evenodd" d="M113.176 50.2229C115.152 50.2229 117.127 50.2229 119.103 50.2229C119.103 52.4818 119.103 54.741 119.103 57C120.851 57 122.598 57 124.346 57C124.346 58.9363 124.346 60.8726 124.346 62.8089C122.598 62.8089 120.851 62.8089 119.103 62.8089C118.999 66.7793 119.113 70.7325 119.445 74.6688C120.656 76.1859 122.138 76.5085 123.89 75.6369C124.521 77.4294 124.901 79.2849 125.03 81.2038C122.785 81.8268 120.505 82.0284 118.191 81.8089C114.402 81.0116 112.389 78.5508 112.151 74.4267C112.037 70.5548 111.999 66.6822 112.037 62.8089C111.049 62.8089 110.061 62.8089 109.073 62.8089C109.073 60.9532 109.073 59.0977 109.073 57.242C110.152 57.3091 111.216 57.2282 112.265 57C112.718 54.7652 113.022 52.5063 113.176 50.2229Z" fill="#302F2E"/>
<path opacity="0.962" fill-rule="evenodd" clip-rule="evenodd" d="M189.311 50.2229C191.287 50.2229 193.262 50.2229 195.238 50.2229C195.238 52.4818 195.238 54.741 195.238 57C197.061 57 198.885 57 200.709 57C200.709 58.9363 200.709 60.8726 200.709 62.8089C198.885 62.8089 197.061 62.8089 195.238 62.8089C195.2 66.521 195.238 70.2322 195.352 73.9426C196.359 76.1147 197.916 76.6794 200.025 75.6369C200.101 75.7175 200.177 75.7984 200.253 75.879C200.633 77.4926 201.012 79.106 201.392 80.7197C200.892 81.2081 200.284 81.4906 199.569 81.5668C196.83 82.2172 194.171 81.9752 191.591 80.8407C189.5 79.1044 188.398 76.805 188.285 73.9426C188.171 70.2322 188.133 66.521 188.171 62.8089C187.184 62.8089 186.196 62.8089 185.208 62.8089C185.208 60.9532 185.208 59.0977 185.208 57.242C186.287 57.3091 187.351 57.2282 188.399 57C188.927 54.7817 189.23 52.5227 189.311 50.2229Z" fill="#302F2E"/>
<path opacity="0.968" fill-rule="evenodd" clip-rule="evenodd" d="M95.1684 56.5159C102.087 56.1333 106.304 59.5218 107.82 66.6815C108.68 72.2283 107.047 76.706 102.919 80.1147C96.8771 83.366 91.7482 82.1962 87.5321 76.6051C85.9171 73.4206 85.3853 70.0321 85.9365 66.4395C87.0124 60.9808 90.0897 57.6731 95.1684 56.5159ZM95.8522 62.5669C98.7795 62.4858 100.413 64.0189 100.753 67.1656C101.097 69.6104 100.793 71.9502 99.8413 74.1847C97.8561 76.442 95.8805 76.442 93.9147 74.1847C92.7343 71.267 92.5823 68.2819 93.4588 65.2293C93.9251 63.9683 94.723 63.0807 95.8522 62.5669Z" fill="#302F2E"/>
<path opacity="0.967" fill-rule="evenodd" clip-rule="evenodd" d="M171.531 56.5159C173.793 56.3351 175.996 56.6176 178.142 57.3631C180.774 58.7928 182.255 61.0922 182.587 64.2612C182.701 69.9888 182.739 75.7171 182.701 81.4459C180.801 81.4459 178.901 81.4459 177.002 81.4459C176.97 80.5852 176.779 79.7782 176.432 79.0255C173.709 81.7661 170.556 82.5326 166.972 81.3249C164.87 80.2945 163.617 78.5601 163.211 76.121C162.583 72.0078 164.065 69.1438 167.656 67.5287C170.313 66.4884 173.048 65.8027 175.862 65.4714C175.638 64.1406 174.954 63.2127 173.811 62.6879C171.184 62.3662 168.752 62.9713 166.516 64.5032C165.508 63.0885 164.672 61.5557 164.009 59.9045C164.44 59.3495 164.972 58.9058 165.604 58.5733C167.54 57.6596 169.515 56.9736 171.531 56.5159ZM175.178 70.3121C175.406 70.3121 175.634 70.3121 175.862 70.3121C176.587 74.2612 175.067 76.1573 171.303 76C169.725 75.2487 169.383 74.079 170.277 72.4905C170.752 72.0976 171.245 71.7346 171.759 71.4013C172.916 70.9947 174.056 70.6316 175.178 70.3121Z" fill="#302F2E"/>
<path opacity="0.965" fill-rule="evenodd" clip-rule="evenodd" d="M211.65 56.5159C219.189 56.2102 223.064 60.0828 223.275 68.1338C223.218 69.2665 223.142 70.3958 223.047 71.5223C218.564 71.5223 214.081 71.5223 209.598 71.5223C209.97 73.8945 211.262 75.3872 213.474 76C215.838 76.4412 218.041 75.9973 220.084 74.6688C220.96 76.0431 221.719 77.4953 222.364 79.0255C220.521 80.6336 218.394 81.5616 215.981 81.8089C206.23 81.9411 201.861 76.8178 202.874 66.4395C203.843 61.1381 206.768 57.8302 211.65 56.5159ZM212.334 62.3248C215.405 61.8127 217.001 63.1843 217.121 66.4395C214.536 66.4799 211.953 66.4395 209.37 66.3185C209.794 64.4804 210.781 63.1492 212.334 62.3248Z" fill="#302F2E"/>
<path opacity="0.969" fill-rule="evenodd" clip-rule="evenodd" d="M128.677 57C130.956 57 133.236 57 135.515 57C135.515 65.1487 135.515 73.2972 135.515 81.4459C133.236 81.4459 130.956 81.4459 128.677 81.4459C128.677 73.2972 128.677 65.1487 128.677 57Z" fill="#302F2E"/>
<path opacity="0.954" fill-rule="evenodd" clip-rule="evenodd" d="M138.707 57.0001C141.067 56.9197 143.422 57.0003 145.773 57.2421C147.472 63.3301 149.03 69.4616 150.446 75.637C151.862 69.4616 153.419 63.3301 155.119 57.2421C157.317 57.0005 159.521 56.9197 161.729 57.0001C159.298 65.1488 156.867 73.2972 154.435 81.4459C151.771 81.5263 149.112 81.4457 146.457 81.2039C143.827 73.1484 141.243 65.0803 138.707 57.0001Z" fill="#302F2E"/>
</svg>
