<svg width="98" height="89" viewBox="0 0 98 89" fill="none" xmlns="http://www.w3.org/2000/svg">
<path fill-rule="evenodd" clip-rule="evenodd" d="M40.8723 0.307353C40.8529 0.367287 40.1121 0.414217 39.0753 0.421285C38.0321 0.428636 37.3344 0.473022 37.3679 0.530412C37.4129 0.607875 36.4427 0.682794 35.7487 0.655653C35.6806 0.652826 35.6247 0.692971 35.6247 0.744425C35.6247 0.795878 35.3981 0.838285 35.1216 0.838285C34.8447 0.838285 34.5208 0.894827 34.4015 0.964091C34.282 1.03336 33.9988 1.10036 33.772 1.11308C33.5452 1.1258 33.2689 1.18772 33.1579 1.25104C33.0469 1.31409 32.7967 1.36554 32.6018 1.36554C32.407 1.36554 32.2475 1.41304 32.2475 1.47099C32.2475 1.52923 32.0716 1.57673 31.8562 1.57673C31.6409 1.57673 31.4372 1.62394 31.4034 1.68218C31.3696 1.74013 31.1657 1.78763 30.9507 1.78763C30.7353 1.78763 30.5591 1.83512 30.5591 1.89308C30.5591 1.95104 30.3802 1.99853 30.1619 1.99853C29.9434 1.99853 29.7645 2.04603 29.7645 2.10398C29.7645 2.16194 29.608 2.20943 29.4169 2.20943C29.2258 2.20943 29.0692 2.25693 29.0692 2.31517C29.0692 2.37312 28.9665 2.42062 28.8408 2.42062C28.7152 2.42062 28.568 2.46783 28.5137 2.5255C28.4594 2.58318 28.2938 2.64085 28.1461 2.65386C27.9984 2.66686 27.8772 2.71096 27.8772 2.75167C27.8772 2.79238 27.7439 2.85684 27.5804 2.89501C27.4173 2.93317 27.2581 3.00809 27.2269 3.06152C27.1958 3.11524 27.0837 3.15906 26.9775 3.15906C26.8716 3.15906 26.7848 3.20656 26.7848 3.26451C26.7848 3.32247 26.6533 3.36996 26.4928 3.36996C26.332 3.36996 26.1728 3.41746 26.1393 3.47541C26.1055 3.53337 25.991 3.58087 25.8851 3.58087C25.7789 3.58087 25.6924 3.62836 25.6924 3.68632C25.6924 3.74427 25.5582 3.79177 25.3942 3.79177C25.2303 3.79177 25.0964 3.83926 25.0964 3.8975C25.0964 3.95546 25.0069 4.00295 24.8975 4.00295C24.7884 4.00295 24.699 4.05045 24.699 4.1084C24.699 4.16636 24.6335 4.21386 24.5536 4.21386C24.4735 4.21386 24.211 4.33062 23.9701 4.47338C23.7295 4.61615 23.5043 4.70323 23.4702 4.66676C23.4359 4.63029 23.4077 4.67976 23.4077 4.77645C23.4077 4.89378 23.3249 4.9523 23.1596 4.9523C23.023 4.9523 22.9112 4.99979 22.9112 5.05775C22.9112 5.1157 22.8218 5.1632 22.7124 5.1632C22.6033 5.1632 22.5138 5.21069 22.5138 5.26865C22.5138 5.32689 22.4244 5.3741 22.3152 5.3741C22.2058 5.3741 22.1167 5.4216 22.1167 5.47984C22.1167 5.53779 22.0272 5.58529 21.9178 5.58529C21.8087 5.58529 21.7192 5.62741 21.7192 5.67915C21.7192 5.73088 21.6178 5.80043 21.4938 5.83351C21.25 5.89853 20.3002 6.53067 20.2459 6.66411C20.2278 6.70878 20.1272 6.74553 20.0226 6.74553C19.9177 6.74553 19.8322 6.79303 19.8322 6.85098C19.8322 6.90922 19.7652 6.95644 19.6832 6.95644C19.6012 6.95644 19.5341 7.00393 19.5341 7.06217C19.5341 7.12013 19.4755 7.16762 19.4039 7.16762C19.3323 7.16762 19.1777 7.26261 19.0603 7.37852C18.9432 7.49444 18.7784 7.58943 18.694 7.58943C18.6099 7.58943 18.5399 7.62505 18.5388 7.66859C18.5375 7.71212 18.3365 7.89023 18.0919 8.0641C17.8475 8.23825 17.6474 8.41636 17.6471 8.45989C17.6471 8.50343 17.5888 8.53877 17.5175 8.53877C17.4461 8.53877 17.2169 8.70501 17.0082 8.90799C16.7996 9.11126 16.5965 9.27721 16.5571 9.27721C16.5177 9.27721 16.3931 9.36033 16.28 9.46182C15.771 9.91925 15.6557 10.0157 15.6182 10.0157C15.5964 10.0157 15.3443 10.2514 15.0584 10.5398C14.7723 10.8279 14.4933 11.0343 14.4385 10.9981C14.3836 10.9622 14.3663 10.9803 14.4001 11.0385C14.4342 11.0967 14.3432 11.211 14.1984 11.2921C13.9141 11.4515 13.4767 11.8776 13.4733 11.9986C13.4719 12.0393 13.3106 12.2151 13.1144 12.3893C12.6736 12.78 11.787 13.7005 11.787 13.7669C11.787 13.7938 11.4516 14.1594 11.0419 14.5795C10.6322 14.9993 10.2971 15.3948 10.2971 15.4581C10.2971 15.5215 10.0064 15.8881 9.65133 16.2726C9.29624 16.6574 9.00556 17.0088 9.00529 17.054C9.00503 17.0993 8.87113 17.2878 8.70743 17.4733C8.54372 17.6587 8.40983 17.8603 8.40983 17.9214C8.40983 17.9825 8.25331 18.2086 8.06219 18.4238C7.87106 18.6392 7.71455 18.8767 7.71455 18.9516C7.71455 19.0265 7.681 19.089 7.64001 19.0907C7.59902 19.0921 7.45608 19.2821 7.32218 19.5125C7.18829 19.7432 7.04295 19.9317 6.9993 19.9317C6.95564 19.9317 6.91997 20.0163 6.91997 20.1195C6.91997 20.2227 6.83053 20.3756 6.7214 20.4593C6.61199 20.5427 6.52282 20.7222 6.52282 20.8579C6.52282 20.9956 6.4789 21.0756 6.42327 21.0394C6.3687 21.0035 6.32398 21.0482 6.32398 21.1386C6.32398 21.2291 6.27926 21.3032 6.22469 21.3032C6.17012 21.3032 6.1254 21.3758 6.1254 21.4646C6.1254 21.5534 6.05832 21.6535 5.97634 21.6868C5.89462 21.7202 5.82754 21.8157 5.82754 21.8989C5.82754 21.9823 5.7381 22.1522 5.62869 22.2768C5.51956 22.4012 5.43012 22.5892 5.43012 22.6944C5.43012 22.7996 5.3854 22.8855 5.33083 22.8855C5.27626 22.8855 5.23154 22.9805 5.23154 23.0964C5.23154 23.2123 5.18682 23.3073 5.13225 23.3073C5.07742 23.3073 5.03296 23.4023 5.03296 23.5185C5.03296 23.6344 4.98824 23.7294 4.93341 23.7294C4.87884 23.7294 4.83412 23.8204 4.83412 23.9315C4.83412 24.0427 4.79978 24.1495 4.75772 24.169C4.65524 24.216 3.54018 26.5941 3.54178 26.7621C3.54231 26.8347 3.49839 26.8941 3.44355 26.8941C3.38898 26.8941 3.34427 27.01 3.34427 27.1516C3.34427 27.2933 3.29955 27.4383 3.24498 27.4742C3.19041 27.5101 3.14569 27.658 3.14569 27.8033C3.14569 27.952 3.10257 28.0385 3.0464 28.0017C2.98731 27.9627 2.94711 28.0885 2.94711 28.3119C2.94711 28.5185 2.91118 28.6873 2.86726 28.6873C2.8236 28.6873 2.70541 28.9367 2.60506 29.2411C2.50471 29.5456 2.38412 29.8402 2.33727 29.8951C2.29016 29.9502 2.25183 30.1017 2.25183 30.2318C2.25183 30.3618 2.20711 30.4975 2.15254 30.5334C2.09771 30.5693 2.05325 30.7144 2.05325 30.856C2.05325 30.9976 2.00853 31.1135 1.9537 31.1135C1.89913 31.1135 1.85441 31.3007 1.85441 31.5294C1.85441 31.7578 1.80969 31.9744 1.75512 32.0103C1.70055 32.0462 1.65583 32.215 1.65583 32.3857C1.65583 32.5562 1.6159 32.6959 1.56693 32.6959C1.48361 32.6959 1.43303 32.9461 1.29515 34.041C1.264 34.2875 1.19825 34.4891 1.14928 34.4891C1.10003 34.4891 1.05984 34.7226 1.05984 35.0079C1.05984 35.2996 1.01086 35.5439 0.947772 35.5662C0.886016 35.588 0.813879 35.8413 0.787527 36.1288C0.761174 36.4164 0.69995 36.6677 0.651238 36.6869C0.602792 36.7064 0.563396 37.0267 0.563396 37.3991C0.563396 37.7799 0.519741 38.0759 0.463841 38.0759C0.405546 38.0759 0.364553 38.4451 0.364553 38.9726C0.364553 39.4999 0.323826 39.8691 0.265265 39.8691C0.202977 39.8691 0.165977 40.555 0.165977 41.7152C0.165977 42.7307 0.132437 43.5613 0.0914436 43.5613C0.00173818 43.5613 0.0126522 45.5434 0.10289 45.6392C0.137495 45.676 0.165977 46.4817 0.165977 47.4294C0.165977 48.4166 0.205373 49.1522 0.258078 49.1522C0.308654 49.1522 0.372273 49.5438 0.399424 50.0227C0.426575 50.5013 0.496849 51.1894 0.555676 51.5521C0.614504 51.9149 0.697821 52.4956 0.740677 52.8427C0.783534 53.1902 0.872973 53.532 0.939254 53.6024C1.00553 53.6728 1.05984 53.9346 1.05984 54.1842C1.05984 54.4335 1.10456 54.6377 1.15913 54.6377C1.21396 54.6377 1.25841 54.8248 1.25841 55.0535C1.25841 55.282 1.30313 55.4985 1.35797 55.5344C1.41254 55.5703 1.45726 55.76 1.45726 55.9562C1.45726 56.1524 1.50198 56.3424 1.55654 56.3783C1.61111 56.4142 1.65583 56.5802 1.65583 56.7475C1.65583 56.9146 1.70055 57.0808 1.75512 57.1167C1.80969 57.1527 1.85441 57.3452 1.85441 57.5448C1.85441 57.7447 1.89913 57.9078 1.9537 57.9078C2.00853 57.9078 2.05325 58.07 2.05325 58.2682C2.05325 58.4664 2.09744 58.6445 2.15148 58.6637C2.20578 58.6832 2.26008 58.8297 2.27259 58.9891C2.2851 59.1486 2.33009 59.2792 2.37268 59.2792C2.41553 59.2792 2.45041 59.3745 2.45041 59.491C2.45041 59.6074 2.56806 59.9515 2.7118 60.2557C2.85554 60.5599 3.01206 60.8912 3.05944 60.9919C3.10683 61.0928 3.14569 61.2681 3.14569 61.3814C3.14569 61.4948 3.19041 61.6169 3.24498 61.6528C3.29955 61.6885 3.34427 61.8366 3.34427 61.9816C3.34427 62.1306 3.38765 62.2171 3.44355 62.1801C3.49999 62.1431 3.54311 62.2318 3.54311 62.3851C3.54311 62.5335 3.58756 62.6548 3.6424 62.6548C3.69697 62.6548 3.74168 62.7243 3.74168 62.8094C3.74168 62.9533 4.15827 63.8294 4.34992 64.0887C4.39677 64.152 4.41221 64.2283 4.384 64.2583C4.35578 64.2883 4.40103 64.3728 4.48408 64.446C4.5674 64.5195 4.63554 64.6714 4.63554 64.7839C4.63554 64.8961 4.68026 64.9589 4.73483 64.923C4.79127 64.8859 4.83412 64.9744 4.83412 65.1277C4.83412 65.2761 4.87884 65.3976 4.93341 65.3976C4.98824 65.3976 5.03296 65.4926 5.03296 65.6085C5.03296 65.7247 5.07742 65.8194 5.13225 65.8194C5.18682 65.8194 5.23154 65.8941 5.23154 65.9854C5.23154 66.0764 5.29889 66.2229 5.3814 66.3102C5.46392 66.3979 5.50598 66.5132 5.47484 66.5664C5.44369 66.6198 5.46579 66.6633 5.52355 66.6633C5.58158 66.6633 5.62869 66.7346 5.62869 66.8216C5.62869 66.9087 5.66516 66.98 5.70961 66.98C5.75433 66.98 5.86533 67.1462 5.95637 67.3492C6.04767 67.5522 6.16773 67.7184 6.22309 67.7184C6.27873 67.7184 6.32398 67.7897 6.32398 67.8767C6.32398 67.9635 6.3687 68.0348 6.42327 68.0348C6.4781 68.0348 6.52282 68.1298 6.52282 68.2457C6.52282 68.3619 6.56727 68.4569 6.62211 68.4569C6.67668 68.4569 6.7214 68.5281 6.7214 68.6149C6.7214 68.702 6.76612 68.7732 6.82068 68.7732C6.87525 68.7732 6.91997 68.8241 6.91997 68.886C6.91997 69.0112 7.45767 69.8718 7.73531 70.191C7.83326 70.3032 7.91312 70.4316 7.91312 70.4763C7.91312 70.5206 8.02492 70.6756 8.16148 70.8206C8.29803 70.9656 8.40983 71.1248 8.40983 71.174C8.40983 71.2235 8.55517 71.4349 8.73272 71.6441C8.91026 71.8534 9.14477 72.1558 9.25418 72.3167C9.36332 72.4773 9.54326 72.7071 9.65346 72.8273C9.76393 72.9474 9.96464 73.2112 10.0991 73.4133C10.2338 73.6158 10.4116 73.8606 10.4944 73.9581C10.5771 74.0554 10.7563 74.2798 10.8928 74.4574C11.0297 74.6347 11.1761 74.7814 11.2184 74.7831C11.2985 74.7862 12.1841 75.696 12.1841 75.7748C12.1841 75.8342 12.8866 76.5794 12.9425 76.5794C12.9662 76.5794 13.2747 76.8879 13.6279 77.265C13.9812 77.6421 14.2913 77.9387 14.3168 77.9243C14.3424 77.9099 14.6126 78.1473 14.9171 78.4518C15.2219 78.7566 15.5163 79.0057 15.5716 79.0057C15.627 79.0057 15.6446 79.0531 15.6108 79.1111C15.5772 79.1693 15.6251 79.2166 15.7175 79.2166C15.8099 79.2166 16.0329 79.3828 16.2131 79.5858C16.3936 79.789 16.5933 79.955 16.6569 79.955C16.7205 79.955 16.898 80.0975 17.0511 80.2716C17.2042 80.4455 17.4009 80.588 17.4882 80.588C17.5755 80.588 17.6471 80.6355 17.6471 80.6934C17.6471 80.7517 17.7166 80.7989 17.8018 80.7989C17.8869 80.7989 17.929 80.8464 17.8952 80.9046C17.8606 80.9643 17.9439 81.0101 18.0882 81.0101C18.2521 81.0101 18.3424 81.0683 18.3424 81.1743C18.3424 81.2648 18.3868 81.3095 18.4417 81.2738C18.4962 81.2379 18.541 81.2854 18.541 81.3793C18.541 81.4732 18.5819 81.5229 18.6323 81.4898C18.6826 81.457 18.7909 81.5017 18.8734 81.5894C18.9559 81.6767 19.0739 81.7485 19.1356 81.7485C19.1974 81.7485 19.2157 81.8079 19.1763 81.8803C19.1372 81.9529 19.1404 81.9781 19.1838 81.9368C19.2629 81.8608 20.1514 82.3549 20.2129 82.5093C20.231 82.5551 20.3316 82.5924 20.4362 82.5924C20.5411 82.5924 20.6268 82.6323 20.6268 82.6809C20.6268 82.7782 21.128 83.0623 21.2476 83.0326C21.2886 83.0227 21.3109 83.0674 21.2971 83.1321C21.2835 83.1968 21.361 83.2655 21.4693 83.2848C21.5774 83.3037 21.6817 83.3693 21.7009 83.4306C21.72 83.4917 21.8215 83.5418 21.9261 83.5418C22.031 83.5418 22.1167 83.5892 22.1167 83.6472C22.1167 83.7052 22.2058 83.7526 22.3152 83.7526C22.4244 83.7526 22.5138 83.8002 22.5138 83.8581C22.5138 83.9163 22.6006 83.9636 22.7065 83.9636C22.8127 83.9636 22.9269 84.0111 22.9607 84.0693C22.9946 84.1273 23.109 84.1747 23.215 84.1747C23.3212 84.1747 23.4077 84.2222 23.4077 84.2802C23.4077 84.3382 23.4971 84.3856 23.6065 84.3856C23.7157 84.3856 23.8051 84.4331 23.8051 84.4911C23.8051 84.5491 23.8945 84.5966 24.0037 84.5966C24.1131 84.5966 24.2022 84.644 24.2022 84.702C24.2022 84.7602 24.2661 84.8077 24.3444 84.8077C24.4224 84.8077 24.5563 84.8821 24.6423 84.9734C24.728 85.0644 24.7982 85.1066 24.7982 85.0667C24.7982 85.0268 24.9084 85.0709 25.0431 85.1648C25.1778 85.2584 25.3788 85.335 25.4901 85.335C25.6013 85.335 25.6924 85.3825 25.6924 85.4404C25.6924 85.4987 25.7815 85.5462 25.8909 85.5462C26.0001 85.5462 26.0895 85.5934 26.0895 85.6516C26.0895 85.7096 26.246 85.7571 26.4372 85.7571C26.6283 85.7571 26.7848 85.8046 26.7848 85.8625C26.7848 85.9205 26.8716 85.968 26.9775 85.968C27.0837 85.968 27.1979 86.0155 27.2317 86.0734C27.2655 86.1314 27.3997 86.1789 27.5296 86.1789C27.6598 86.1789 27.7939 86.2264 27.8277 86.2843C27.8615 86.3426 28.0205 86.3901 28.1812 86.3901C28.3417 86.3901 28.4732 86.4373 28.4732 86.4955C28.4732 86.5535 28.6037 86.601 28.7631 86.601C28.9223 86.601 29.0698 86.655 29.0905 86.7214C29.1113 86.7876 29.2803 86.8594 29.4661 86.8808C29.6519 86.9026 29.8287 86.9609 29.8588 87.0106C29.8888 87.0604 30.081 87.1311 30.286 87.1675C31.2339 87.3363 31.359 87.3685 31.4101 87.4565C31.4402 87.5082 31.6372 87.5503 31.848 87.5503C32.0585 87.5503 32.2459 87.5953 32.2643 87.6501C32.2824 87.705 32.5121 87.7615 32.7748 87.7756C33.0376 87.7898 33.2747 87.8398 33.3022 87.8867C33.3296 87.934 33.5255 87.9724 33.7374 87.9724C33.9495 87.9724 34.1508 88.0199 34.1843 88.0779C34.2181 88.1358 34.5535 88.1833 34.9294 88.1833C35.3052 88.1833 35.6406 88.2308 35.6744 88.2888C35.708 88.3467 36.0921 88.3942 36.5276 88.3942C37.0922 88.3942 37.3339 88.4344 37.3698 88.5336C37.4081 88.6396 37.8066 88.6798 39.0303 88.7012C39.9159 88.7165 41.0538 88.7615 41.5593 88.801C42.0646 88.8403 42.4779 88.8406 42.4779 88.8013C42.4779 88.7623 43.1596 88.7213 43.9928 88.7106C44.8257 88.6998 45.6192 88.6758 45.7558 88.6568C45.8923 88.6382 46.0401 88.619 46.0843 88.6139C46.1285 88.6091 46.137 88.5576 46.1034 88.4997C46.064 88.4324 46.3691 88.3942 46.9475 88.3942C47.5259 88.3942 47.831 88.356 47.7919 88.2888C47.7533 88.2223 47.9875 88.1833 48.4257 88.1833C48.8082 88.1833 49.1486 88.1358 49.1824 88.0779C49.2162 88.0199 49.4396 87.9724 49.6789 87.9724C49.9184 87.9724 50.1418 87.9249 50.1756 87.8667C50.2094 87.8087 50.4577 87.7612 50.7276 87.7612C50.9976 87.7612 51.2185 87.7137 51.2185 87.6558C51.2185 87.5978 51.3947 87.5503 51.6101 87.5503C51.8251 87.5503 52.029 87.5028 52.0628 87.4449C52.0967 87.3869 52.2779 87.3394 52.4659 87.3394C52.6538 87.3394 52.8076 87.297 52.8076 87.245C52.8076 87.193 52.9753 87.1246 53.18 87.0926C53.9097 86.9795 54.1934 86.8925 54.3065 86.7477C54.3696 86.6668 54.5248 86.601 54.6515 86.601C54.7782 86.601 54.9095 86.5535 54.9433 86.4955C54.9768 86.4373 55.136 86.3901 55.2968 86.3901C55.4573 86.3901 55.5888 86.3426 55.5888 86.2843C55.5888 86.2264 55.6979 86.1789 55.8313 86.1789C55.9646 86.1789 56.1012 86.1314 56.135 86.0734C56.1688 86.0155 56.2838 85.968 56.3905 85.968C56.4973 85.968 56.6735 85.9205 56.7821 85.8625C56.8904 85.8046 57.068 85.7096 57.1766 85.6516C57.2852 85.5934 57.4414 85.5462 57.5242 85.5462C57.607 85.5462 57.6746 85.4987 57.6746 85.4404C57.6746 85.3825 57.7872 85.335 57.9248 85.335C58.0625 85.335 58.3521 85.2162 58.5685 85.0712C58.7849 84.9262 59.0074 84.8077 59.0631 84.8077C59.119 84.8077 59.1645 84.7602 59.1645 84.702C59.1645 84.644 59.2513 84.5966 59.3572 84.5966C59.4631 84.5966 59.5776 84.5491 59.6114 84.4911C59.6452 84.4331 59.7594 84.3856 59.8656 84.3856C59.9716 84.3856 60.0583 84.3382 60.0583 84.2802C60.0583 84.2222 60.1478 84.1747 60.2569 84.1747C60.3663 84.1747 60.4558 84.1273 60.4558 84.0693C60.4558 84.0111 60.5449 83.9636 60.6543 83.9636C60.7635 83.9636 60.8529 83.9163 60.8529 83.8581C60.8529 83.8002 60.9386 83.7526 61.0432 83.7526C61.1481 83.7526 61.2493 83.7032 61.2682 83.6427C61.2873 83.5819 61.4029 83.5245 61.5248 83.5146C61.647 83.5047 61.7468 83.4595 61.7468 83.4137C61.7468 83.3682 61.8152 83.3309 61.899 83.3309C61.9826 83.3309 62.0769 83.2596 62.1083 83.1725C62.1397 83.0855 62.2525 83.0142 62.3593 83.0142C62.466 83.0142 62.5256 82.9667 62.4918 82.9088C62.458 82.8508 62.5001 82.8033 62.5853 82.8033C62.6705 82.8033 62.7402 82.7558 62.7402 82.6979C62.7402 82.6399 62.827 82.5924 62.9329 82.5924C63.0389 82.5924 63.1533 82.5449 63.1871 82.487C63.2209 82.4287 63.3189 82.3812 63.4049 82.3812C63.4906 82.3812 63.6333 82.2978 63.7216 82.196C63.81 82.094 64.0051 81.9436 64.1555 81.8616C64.3057 81.7799 64.4286 81.6733 64.4286 81.625C64.4286 81.5769 64.4848 81.5373 64.5537 81.5373C64.6227 81.5373 64.7994 81.4189 64.9466 81.2738C65.0941 81.1288 65.2738 81.0101 65.3459 81.0101C65.4183 81.0101 65.5418 80.9151 65.6206 80.7989C65.6991 80.683 65.8096 80.5874 65.8658 80.5869C65.9222 80.5863 66.1916 80.3969 66.4647 80.1662C66.7378 79.9352 67.0173 79.7458 67.0855 79.7452C67.1539 79.7447 67.2098 79.67 67.2098 79.5796C67.2098 79.4891 67.2545 79.4444 67.3091 79.4803C67.3636 79.5162 67.4083 79.4919 67.4083 79.4263C67.4083 79.2717 67.6596 79.0057 67.8055 79.0057C67.868 79.0057 67.9785 78.9463 68.0509 78.8739C68.1236 78.8013 68.352 78.5997 68.5585 78.4255C68.7651 78.2514 69.1708 77.8598 69.4601 77.5553C69.7495 77.2506 70.0141 77.0015 70.0481 77.0015C70.1181 77.0015 70.8925 76.1455 71.2159 75.7101C71.3344 75.5512 71.4632 75.4206 71.5029 75.42C71.5422 75.4195 71.8106 75.154 72.0988 74.8303C72.3871 74.5066 72.7233 74.1289 72.8463 73.9912C72.9693 73.8535 73.0699 73.7158 73.0699 73.685C73.0699 73.6545 73.2709 73.4066 73.5168 73.134C73.7625 72.8615 73.9638 72.5969 73.9638 72.5457C73.9638 72.4948 74.0085 72.4824 74.0631 72.518C74.1176 72.5539 74.1623 72.4855 74.1623 72.3662C74.1623 72.2466 74.2071 72.1488 74.2616 72.1488C74.3162 72.1488 74.3609 72.0968 74.3609 72.0329C74.3609 71.9693 74.4868 71.7912 74.6404 71.6374C74.794 71.4836 75.0032 71.2059 75.1054 71.0208C75.2077 70.8353 75.3184 70.7013 75.3514 70.7231C75.3844 70.7446 75.4733 70.6114 75.5492 70.4271C75.6248 70.2427 75.7685 70.0152 75.8681 69.9213C75.9679 69.8274 76.0496 69.7059 76.0496 69.651C76.0496 69.5962 76.1276 69.4593 76.2234 69.3468C76.319 69.2346 76.4641 68.9999 76.5461 68.8261C76.6278 68.6519 76.7508 68.4716 76.8192 68.4252C76.8876 68.3788 76.9435 68.2895 76.9435 68.2264C76.9435 68.1637 77.0396 68.0237 77.1572 67.9155C77.2749 67.8069 77.3369 67.7184 77.2948 67.7184C77.2528 67.7184 77.2908 67.6014 77.379 67.4583C77.8301 66.727 78.1437 66.7691 72.2503 66.7691L66.9614 66.7694L66.6883 67.0187C66.5379 67.1558 66.4152 67.2975 66.4152 67.3336C66.4152 67.3695 66.214 67.6065 65.968 67.8601C65.7223 68.1139 65.5211 68.3557 65.5211 68.3972C65.5211 68.5058 64.2487 69.8079 63.8111 70.1469C63.6082 70.3044 63.4704 70.463 63.505 70.4997C63.5396 70.5365 63.5121 70.5664 63.444 70.5664C63.3761 70.5664 63.1488 70.7564 62.9388 70.9885C62.7288 71.2206 62.528 71.4106 62.4924 71.4106C62.457 71.4106 62.3657 71.4697 62.2895 71.5424C61.9549 71.861 61.8636 71.9215 61.8072 71.8613C61.7739 71.8262 61.7468 71.8562 61.7468 71.928C61.7468 72.0917 61.5767 72.2644 61.2253 72.4569C61.0752 72.5392 60.9522 72.6461 60.9522 72.6941C60.9522 72.7425 60.8851 72.7818 60.8031 72.7818C60.7214 72.7818 60.6543 72.8293 60.6543 72.8872C60.6543 72.9455 60.5857 72.993 60.5018 72.993C60.418 72.993 60.2503 73.0882 60.1294 73.2047C59.6428 73.6732 59.2766 73.9423 59.1254 73.9423C59.0375 73.9423 58.9659 73.9816 58.9659 74.0299C58.9659 74.078 58.8429 74.1849 58.6925 74.2671C58.5424 74.3494 58.3971 74.4404 58.3699 74.4695C58.2461 74.6013 57.8604 74.7862 57.709 74.7862C57.6171 74.7862 57.5711 74.8167 57.6062 74.8543C57.6784 74.9307 56.821 75.4192 56.6149 75.4192C56.5423 75.4192 56.4826 75.493 56.4826 75.5834C56.4826 75.6739 56.4416 75.7211 56.3913 75.688C56.341 75.655 56.2327 75.6996 56.1502 75.7873C56.0677 75.8749 55.9327 75.9464 55.8499 75.9464C55.7674 75.9464 55.6721 75.9939 55.6386 76.0519C55.6047 76.1101 55.494 76.1576 55.3926 76.1576C55.2912 76.1576 55.1932 76.2046 55.1749 76.2619C55.1568 76.3196 55.0221 76.377 54.8759 76.39C54.7295 76.4027 54.6316 76.4505 54.6582 76.4963C54.6848 76.5421 54.5922 76.5794 54.4524 76.5794C54.3127 76.5794 54.1982 76.6269 54.1982 76.6849C54.1982 76.7428 54.1114 76.7903 54.0055 76.7903C53.8993 76.7903 53.7851 76.8378 53.7513 76.8958C53.7175 76.954 53.5586 77.0015 53.3978 77.0015C53.237 77.0015 53.1058 77.049 53.1058 77.107C53.1058 77.1649 52.9993 77.2124 52.8694 77.2124C52.7398 77.2124 52.5761 77.2856 52.5061 77.3755C52.4358 77.4652 52.32 77.5146 52.2484 77.4855C52.1768 77.4561 52.053 77.5016 51.9734 77.5862C51.8938 77.6707 51.7163 77.74 51.5792 77.74C51.4418 77.74 51.3018 77.7872 51.2683 77.8454C51.2345 77.9034 51.0529 77.9509 50.865 77.9509C50.6771 77.9509 50.5232 77.9984 50.5232 78.0563C50.5232 78.1143 50.3443 78.1618 50.1261 78.1618C49.9075 78.1618 49.7286 78.2093 49.7286 78.2672C49.7286 78.3252 49.5524 78.3727 49.3371 78.3727C49.122 78.3727 48.9181 78.4202 48.8843 78.4784C48.8508 78.5364 48.6272 78.5838 48.3879 78.5838C48.1483 78.5838 47.925 78.6313 47.8911 78.6893C47.8573 78.7473 47.6178 78.7947 47.3588 78.7947C47.0998 78.7947 46.8456 78.8386 46.7937 78.892C46.7417 78.9452 46.3864 79.002 46.0039 79.0178C45.6216 79.0339 45.2516 79.0919 45.1819 79.147C45.0203 79.2748 39.4285 79.3147 38.6416 79.1939C38.3206 79.1445 37.7451 79.0775 37.3629 79.0449C36.9804 79.0124 36.625 78.9429 36.5731 78.8903C36.5212 78.8377 36.2643 78.7947 36.0021 78.7947C35.7399 78.7947 35.5254 78.756 35.5254 78.7091C35.5254 78.6619 35.3145 78.6116 35.0569 78.5974C34.7992 78.5833 34.5421 78.5321 34.4856 78.484C34.4292 78.436 34.2043 78.3693 33.9857 78.3359C33.1313 78.2056 32.8395 78.1349 32.7871 78.0447C32.757 77.993 32.601 77.9509 32.4405 77.9509C32.2797 77.9509 32.1482 77.9034 32.1482 77.8454C32.1482 77.7872 32.0231 77.74 31.8701 77.74C31.7173 77.74 31.5443 77.6891 31.486 77.6272C31.4274 77.565 31.318 77.5011 31.2427 77.485C31.1671 77.4688 30.9797 77.401 30.8258 77.334C30.672 77.2673 30.4846 77.2124 30.4095 77.2124C30.3344 77.2124 30.2508 77.1743 30.2237 77.1279C30.1965 77.0812 29.9482 76.9778 29.6716 76.8978C29.3948 76.8178 29.1685 76.7134 29.1685 76.6659C29.1685 76.6184 29.0817 76.5794 28.9758 76.5794C28.8699 76.5794 28.7554 76.5319 28.7216 76.474C28.6878 76.416 28.5512 76.3685 28.4179 76.3685C28.2845 76.3685 28.1754 76.321 28.1754 76.2631C28.1754 76.2048 28.0859 76.1576 27.9768 76.1576C27.8674 76.1576 27.778 76.1101 27.778 76.0519C27.778 75.9939 27.6997 75.943 27.6041 75.9388C27.5086 75.9346 27.2964 75.839 27.1325 75.7265C26.9685 75.6143 26.7563 75.4933 26.6608 75.4582C26.5649 75.4231 26.4869 75.3525 26.4869 75.3013C26.4869 75.2501 26.4044 75.208 26.3035 75.208C26.2029 75.208 26.0395 75.1133 25.9405 74.9971C25.8417 74.8812 25.6783 74.7862 25.5776 74.7862C25.4768 74.7862 25.3942 74.7387 25.3942 74.6807C25.3942 74.6225 25.3048 74.5753 25.1957 74.5753C25.0863 74.5753 24.9971 74.5278 24.9971 74.4695C24.9971 74.4116 24.9383 74.3641 24.8667 74.3641C24.7951 74.3641 24.6404 74.2691 24.5233 74.1532C24.4059 74.0373 24.2747 73.9415 24.2313 73.9403C24.1881 73.9395 24.0476 73.8207 23.9188 73.6765C23.7902 73.5326 23.6001 73.4148 23.4966 73.4148C23.393 73.4148 23.3084 73.3755 23.3084 73.3271C23.3084 73.2788 23.1857 73.1722 23.0353 73.0896C22.8852 73.0074 22.6586 72.8324 22.5322 72.7006C22.4057 72.5692 22.2687 72.4835 22.2277 72.5104C22.1864 72.5375 22.09 72.4671 22.0134 72.3543C21.9367 72.2412 21.8244 72.1488 21.7637 72.1488C21.7033 72.1488 21.5947 72.0317 21.5225 71.8887C21.4504 71.7456 21.3559 71.6518 21.3128 71.6803C21.2694 71.7086 21.0764 71.5647 20.8839 71.3603C20.6915 71.1559 20.5113 70.9885 20.4836 70.9885C20.4277 70.9885 19.8101 70.3988 18.9251 69.5001C18.6046 69.1747 18.2306 68.8193 18.094 68.7102C17.9575 68.6013 17.8457 68.4628 17.8457 68.4023C17.8457 68.3418 17.7562 68.2239 17.6471 68.1402C17.5377 68.0568 17.4483 67.9259 17.4483 67.8499C17.4483 67.7738 17.3814 67.6845 17.3 67.6511C17.2183 67.6181 17.1674 67.5601 17.1871 67.5228C17.2068 67.4852 17.0303 67.2884 16.7953 67.0854C16.5603 66.8824 16.3651 66.6303 16.3619 66.5254C16.3585 66.4205 16.3178 66.3594 16.2714 66.39C16.2251 66.4205 16.1248 66.3164 16.0486 66.1587C15.9725 66.0012 15.8317 65.7954 15.7356 65.7016C15.6398 65.608 15.5612 65.4774 15.5612 65.4115C15.5612 65.3459 15.5165 65.2922 15.462 65.2922C15.4071 65.2922 15.3627 65.2385 15.3627 65.1726C15.3627 65.107 15.2812 64.9764 15.1817 64.8825C15.0821 64.7887 14.916 64.5577 14.8127 64.3691C14.7092 64.1806 14.5947 64.0262 14.5585 64.0262C14.5223 64.0262 14.4371 63.8837 14.3693 63.7099C14.3014 63.5357 14.2066 63.3932 14.1587 63.3932C14.1105 63.3932 14.0714 63.2982 14.0714 63.1823C14.0714 63.0664 14.0347 62.9714 13.9899 62.9714C13.9452 62.9714 13.7376 62.6293 13.5281 62.2115C13.3189 61.7936 13.0649 61.3574 12.9638 61.2424C12.8629 61.127 12.7801 60.9466 12.7801 60.8417C12.7801 60.7366 12.7354 60.6506 12.6808 60.6506C12.6263 60.6506 12.5815 60.5556 12.5815 60.4397C12.5815 60.3235 12.5368 60.2285 12.4822 60.2285C12.4274 60.2285 12.383 60.1336 12.383 60.0176C12.383 59.9017 12.3382 59.8067 12.2834 59.8067C12.2288 59.8067 12.1841 59.7118 12.1841 59.5956C12.1841 59.4796 12.1394 59.3847 12.0848 59.3847C12.0303 59.3847 11.9855 59.3128 11.9855 59.2249C11.9855 59.1373 11.9437 58.9829 11.8926 58.8823C11.5831 58.2713 11.0917 57.0243 11.0917 56.849C11.0917 56.7351 11.047 56.6421 10.9924 56.6421C10.9376 56.6421 10.8928 56.5499 10.8928 56.4371C10.8928 56.3246 10.8484 56.203 10.7935 56.1674C10.739 56.1315 10.6943 55.9653 10.6943 55.7982C10.6943 55.6308 10.6495 55.4646 10.595 55.429C10.5404 55.3931 10.4957 55.2506 10.4957 55.1123C10.4957 54.9741 10.451 54.8319 10.3964 54.796C10.3418 54.7601 10.2971 54.5673 10.2971 54.3677C10.2971 54.1681 10.2524 54.0047 10.1978 54.0047C10.143 54.0047 10.0983 53.815 10.0983 53.5829C10.0983 53.3508 10.0538 53.1608 9.99897 53.1608C9.9444 53.1608 9.89969 52.975 9.89969 52.7477C9.89969 52.5204 9.8531 52.318 9.79614 52.2979C9.70643 52.266 9.64894 51.9338 9.61194 51.2296C9.60635 51.1244 9.5571 51.0679 9.50253 51.1038C9.44024 51.1445 9.40298 50.9271 9.40298 50.5236C9.40298 50.1202 9.36598 49.9028 9.30369 49.9435C9.2406 49.9848 9.2044 49.7004 9.2044 49.1646C9.2044 48.7004 9.15968 48.2914 9.10511 48.2557C8.96882 48.1661 8.96882 40.9242 9.10511 40.9242C9.16367 40.9242 9.2044 40.555 9.2044 40.0274C9.2044 39.4999 9.24539 39.1307 9.30369 39.1307C9.35852 39.1307 9.40298 38.9147 9.40298 38.6509C9.40298 38.3869 9.46979 38.0337 9.55151 37.8664C9.63296 37.6987 9.67263 37.4873 9.63989 37.3959C9.60688 37.3049 9.64228 37.124 9.71868 36.9939C9.79481 36.8636 9.8712 36.5911 9.88851 36.3881C9.90554 36.1851 9.94893 35.9951 9.9846 35.966C10.0203 35.9372 10.0623 35.7709 10.078 35.5968C10.094 35.4229 10.1435 35.1854 10.1882 35.0695C10.345 34.6624 10.4957 34.1032 10.4957 33.9279C10.4957 33.8304 10.5306 33.751 10.5734 33.751C10.616 33.751 10.6612 33.6203 10.6735 33.4606C10.686 33.3012 10.7403 33.1547 10.7946 33.1355C10.8486 33.1163 10.8928 32.9619 10.8928 32.7926C10.8928 32.6235 10.9376 32.485 10.9924 32.485C11.047 32.485 11.0917 32.3657 11.0917 32.2198C11.0917 31.9665 11.2112 31.6679 11.45 31.3244C11.5104 31.2377 11.6209 30.9408 11.6951 30.6652C11.7694 30.3898 11.8652 30.1642 11.9078 30.1642C11.9507 30.1642 11.9855 30.0692 11.9855 29.9533C11.9855 29.8371 12.0303 29.7421 12.0848 29.7421C12.1394 29.7421 12.1841 29.6474 12.1841 29.5312C12.1841 29.4153 12.2288 29.3203 12.2834 29.3203C12.3382 29.3203 12.383 29.2281 12.383 29.1156C12.383 29.0028 12.4274 28.8815 12.4822 28.8456C12.5368 28.8097 12.5815 28.6882 12.5815 28.5756C12.5815 28.4631 12.6263 28.371 12.6808 28.371C12.7354 28.371 12.7801 28.276 12.7801 28.1598C12.7801 28.0439 12.8248 27.9489 12.8794 27.9489C12.934 27.9489 12.9787 27.8748 12.9787 27.7843C12.9787 27.6939 13.0186 27.6461 13.0676 27.6783C13.1163 27.7103 13.1818 27.628 13.2132 27.4951C13.2446 27.3625 13.4506 26.9577 13.6708 26.5955C13.8912 26.2337 14.0714 25.8916 14.0714 25.8356C14.0714 25.7796 14.1161 25.7335 14.1707 25.7335C14.2252 25.7335 14.27 25.6598 14.27 25.5693C14.27 25.4788 14.3147 25.4342 14.3693 25.4701C14.4238 25.5057 14.4685 25.4438 14.4685 25.3324C14.4685 25.2207 14.5705 25.0163 14.6951 24.8778C14.8194 24.7393 15.0318 24.4483 15.1668 24.2312C15.3017 24.0141 15.4457 23.836 15.4867 23.8354C15.5277 23.8351 15.5612 23.7741 15.5612 23.7C15.5612 23.6257 15.6507 23.4965 15.7598 23.4128C15.8692 23.3294 15.9584 23.2205 15.9584 23.1711C15.9584 23.1219 16.026 23.0096 16.1083 22.9223C16.1908 22.8346 16.2286 22.7119 16.1924 22.6497C16.1532 22.5824 16.1732 22.5669 16.2411 22.6116C16.309 22.6562 16.3558 22.6198 16.3558 22.5225C16.3558 22.432 16.4024 22.358 16.4596 22.358C16.5847 22.358 17.0511 21.8776 17.0511 21.7487C17.0511 21.6987 17.1645 21.5528 17.3034 21.4245C17.4421 21.2964 17.5246 21.1381 17.4869 21.0728C17.4445 21.0004 17.4624 20.9834 17.5324 21.0292C17.5955 21.0708 17.6471 21.0663 17.6471 21.0193C17.6474 20.9218 18.0911 20.3536 18.167 20.3536C18.2439 20.3536 19.137 19.3861 19.137 19.3027C19.137 19.2623 19.2472 19.1665 19.3818 19.0898C19.5165 19.0132 19.5991 18.903 19.565 18.8447C19.5312 18.7865 19.5493 18.769 19.6052 18.8057C19.6613 18.8425 19.8136 18.7783 19.9435 18.6635C20.346 18.3076 21.024 17.5652 21.024 17.4806C21.024 17.4363 21.0969 17.4001 21.1861 17.4001C21.2752 17.4001 21.4206 17.3116 21.509 17.2033C21.5973 17.0953 21.8076 16.9172 21.9761 16.8078C22.3259 16.5808 22.9565 16.0677 23.2336 15.7841C23.3369 15.6786 23.5043 15.5859 23.6063 15.5777C23.7079 15.5695 23.7694 15.5251 23.7428 15.4793C23.7159 15.4332 23.7638 15.3956 23.849 15.3956C23.9339 15.3956 24.0037 15.3482 24.0037 15.2902C24.0037 15.2322 24.0726 15.1847 24.157 15.1847C24.2411 15.1847 24.4059 15.0898 24.5233 14.9738C24.6404 14.8576 24.7951 14.7627 24.8667 14.7627C24.9383 14.7627 24.9971 14.7242 24.9971 14.677C24.9971 14.6298 25.1533 14.526 25.3447 14.4463C25.5359 14.3666 25.6924 14.2628 25.6924 14.2156C25.6924 14.1684 25.7256 14.1353 25.7666 14.1424C25.9716 14.1766 26.0895 14.1144 26.0895 13.9716C26.0895 13.8837 26.1779 13.8133 26.2881 13.8133C26.3975 13.8133 26.4869 13.7658 26.4869 13.7079C26.4869 13.6499 26.6011 13.6024 26.7409 13.6024C26.8852 13.6024 26.9685 13.5566 26.9339 13.497C26.899 13.437 26.9823 13.3915 27.1266 13.3915C27.2663 13.3915 27.3808 13.344 27.3808 13.2858C27.3808 13.2278 27.4702 13.1803 27.5794 13.1803C27.6888 13.1803 27.778 13.1328 27.778 13.0749C27.778 13.0169 27.8637 12.9694 27.9685 12.9694C28.0732 12.9694 28.1738 12.9225 28.1919 12.8648C28.21 12.8074 28.3479 12.7495 28.4983 12.7365C28.6484 12.7232 28.7714 12.683 28.7714 12.6468C28.7714 12.6107 28.9612 12.5165 29.1933 12.4371C29.4257 12.3579 29.6514 12.2315 29.695 12.1563C29.7387 12.0814 29.8814 12.0201 30.0118 12.0201C30.1425 12.0201 30.2769 11.9726 30.3107 11.9146C30.3445 11.8567 30.4595 11.8092 30.5663 11.8092C30.673 11.8092 30.8492 11.7617 30.9578 11.7034C31.0662 11.6455 31.2437 11.5505 31.3523 11.4925C31.4609 11.4346 31.6592 11.3871 31.7934 11.3871C31.9276 11.3871 32.0649 11.3396 32.0987 11.2816C32.1325 11.2237 32.3138 11.1762 32.5017 11.1762C32.6897 11.1762 32.8435 11.1287 32.8435 11.0707C32.8435 11.0125 32.991 10.9653 33.1715 10.9653C33.3517 10.9653 33.5415 10.9203 33.5934 10.8652C33.6453 10.8104 33.875 10.7538 34.1039 10.7397C34.3328 10.7253 34.5013 10.6812 34.4784 10.6416C34.4553 10.602 34.6637 10.5466 34.9419 10.518C35.2198 10.4898 35.4759 10.4233 35.511 10.3702C35.5461 10.3173 35.7932 10.2667 36.0596 10.2579C36.3261 10.2492 36.592 10.1909 36.6505 10.1287C36.7091 10.0665 37.0743 10.0157 37.4622 10.0157C37.85 10.0157 38.2131 9.96703 38.2692 9.90738C38.4782 9.68545 46.5469 9.90002 46.8136 10.1347C46.8767 10.1901 47.1224 10.2483 47.3601 10.2639C47.5975 10.2794 47.8925 10.3504 48.0152 10.4213C48.1382 10.4926 48.2388 10.5302 48.2388 10.5053C48.2388 10.4804 48.4065 10.5059 48.6112 10.5621C49.1923 10.7219 49.8426 10.868 50.2501 10.9302C50.4551 10.9616 50.6225 11.0297 50.6225 11.0818C50.6225 11.1338 50.7567 11.1762 50.9206 11.1762C51.0843 11.1762 51.2185 11.2237 51.2185 11.2816C51.2185 11.3396 51.3777 11.3871 51.572 11.3871C51.7823 11.3871 51.9007 11.4298 51.864 11.4925C51.8275 11.5553 51.9457 11.598 52.1563 11.598C52.3506 11.598 52.5098 11.6455 52.5098 11.7034C52.5098 11.7617 52.6439 11.8092 52.8076 11.8092C52.9716 11.8092 53.1058 11.8567 53.1058 11.9146C53.1058 11.9726 53.212 12.0201 53.3419 12.0201C53.4718 12.0201 53.6336 12.0913 53.7015 12.1784C53.7696 12.2652 53.8873 12.3364 53.9634 12.3364C54.0393 12.3364 54.1793 12.3786 54.2741 12.4297C54.3688 12.4809 54.5807 12.5815 54.7444 12.6531C54.9084 12.7246 55.12 12.825 55.2151 12.8761C55.3098 12.9276 55.4552 12.9694 55.5377 12.9694C55.6205 12.9694 55.6881 13.0169 55.6881 13.0749C55.6881 13.1328 55.7775 13.1803 55.8866 13.1803C55.996 13.1803 56.0855 13.2278 56.0855 13.2858C56.0855 13.344 56.1747 13.3915 56.2841 13.3915C56.3932 13.3915 56.4826 13.439 56.4826 13.497C56.4826 13.5549 56.5721 13.6024 56.6812 13.6024C56.7906 13.6024 56.8801 13.6499 56.8801 13.7079C56.8801 13.7658 56.9583 13.815 57.0539 13.8167C57.1494 13.8187 57.3145 13.8896 57.4204 13.975C57.6443 14.1548 57.9725 14.1806 57.9725 14.018C57.9725 13.9566 58.0183 13.9366 58.0744 13.9733C58.1303 14.0101 58.1639 13.9846 58.1487 13.9168C58.1338 13.8492 58.2041 13.7387 58.3052 13.6717C58.5357 13.5184 59.1645 12.8648 59.1645 12.7783C59.1645 12.6881 59.9849 11.8092 60.069 11.8092C60.1568 11.8092 60.7669 11.1533 60.9181 10.8963C60.9815 10.7892 61.093 10.7173 61.1665 10.7366C61.24 10.7558 61.2658 10.7354 61.224 10.6911C61.1492 10.6116 61.6182 10.0157 61.7556 10.0157C61.8447 10.0157 62.4535 9.36316 62.6066 9.10306C62.6699 8.99591 62.7817 8.92382 62.8549 8.94333C62.9284 8.96256 62.9542 8.9422 62.9124 8.89781C62.8302 8.81017 63.3133 8.22242 63.468 8.22242C63.5625 8.22242 63.6995 8.06466 63.9993 7.61148C64.1646 7.361 63.9378 6.95644 63.6322 6.95644C63.572 6.95644 63.5505 6.90922 63.5843 6.85098C63.6191 6.79133 63.5358 6.74553 63.3916 6.74553C63.2276 6.74553 63.1373 6.6873 63.1373 6.581C63.1373 6.49053 63.0905 6.44727 63.0333 6.48487C62.976 6.52248 62.8137 6.43031 62.6721 6.28019C62.5307 6.13007 62.354 6.00709 62.2797 6.00709C62.2052 6.00709 62.1442 5.9596 62.1442 5.90164C62.1442 5.84369 62.0574 5.79619 61.9515 5.79619C61.8453 5.79619 61.7311 5.74869 61.6973 5.69074C61.6635 5.63278 61.5463 5.58529 61.4372 5.58529C61.3278 5.58529 61.266 5.53779 61.2999 5.47984C61.3347 5.4199 61.2511 5.3741 61.1071 5.3741C60.9674 5.3741 60.8529 5.32689 60.8529 5.26865C60.8529 5.21069 60.7635 5.1632 60.6543 5.1632C60.5449 5.1632 60.4558 5.1157 60.4558 5.05775C60.4558 4.99979 60.3663 4.9523 60.2569 4.9523C60.1478 4.9523 60.0583 4.90565 60.0583 4.84883C60.0583 4.792 59.9466 4.71539 59.81 4.6792C59.6734 4.64273 59.5616 4.57064 59.5616 4.5189C59.5616 4.46717 59.4722 4.42476 59.3631 4.42476C59.2539 4.42476 59.1645 4.37726 59.1645 4.31931C59.1645 4.26135 59.0969 4.21386 59.0141 4.21386C58.9313 4.21386 58.7751 4.16636 58.6664 4.1084C58.5578 4.05045 58.3803 3.95546 58.272 3.8975C58.1634 3.83926 57.9845 3.79177 57.8745 3.79177C57.7646 3.79177 57.6746 3.74427 57.6746 3.68632C57.6746 3.62836 57.5852 3.58087 57.4758 3.58087C57.3667 3.58087 57.2772 3.53337 57.2772 3.47541C57.2772 3.41746 57.1431 3.36996 56.9793 3.36996C56.8154 3.36996 56.6812 3.32247 56.6812 3.26451C56.6812 3.20656 56.6128 3.15906 56.529 3.15906C56.4451 3.15906 56.2662 3.08216 56.1315 2.98859C55.9968 2.89501 55.8866 2.85006 55.8866 2.88907C55.8866 2.92809 55.7639 2.89077 55.6135 2.80652C55.4634 2.72227 55.1395 2.59618 54.8935 2.52664C54.6475 2.45681 54.3688 2.35701 54.2741 2.30471C54.1793 2.25241 54.0143 2.20943 53.9075 2.20943C53.8008 2.20943 53.6858 2.16194 53.652 2.10398C53.6182 2.04603 53.4143 1.99853 53.1992 1.99853C52.9839 1.99853 52.8076 1.95104 52.8076 1.89308C52.8076 1.83512 52.629 1.78763 52.4105 1.78763C52.1919 1.78763 52.0131 1.74013 52.0131 1.68218C52.0131 1.62394 51.8369 1.57673 51.6218 1.57673C51.4064 1.57673 51.2025 1.52923 51.1687 1.47099C51.1352 1.41304 50.918 1.36554 50.6861 1.36554C50.4545 1.36554 50.2152 1.31267 50.1543 1.24822C50.0936 1.18348 49.8365 1.12297 49.583 1.11336C49.3296 1.10403 49.0911 1.04636 49.0531 0.985577C49.015 0.924512 48.7155 0.86288 48.3879 0.848745C48.0599 0.834609 47.7493 0.778915 47.6974 0.724917C47.6455 0.671202 47.2571 0.627099 46.8344 0.627099C46.4114 0.627099 46.0377 0.579603 46.0039 0.521648C45.9669 0.458038 45.2599 0.416197 44.2162 0.416197C43.1724 0.416197 42.4654 0.374638 42.4284 0.310746C42.3494 0.175327 40.9162 0.171934 40.8723 0.307353Z" fill="#045C9B"/>
<path fill-rule="evenodd" clip-rule="evenodd" d="M80.4379 1.99851C79.9966 2.46272 79.6492 2.8424 79.6654 2.8424C79.6819 2.8424 79.4448 3.11607 79.1387 3.45051C78.8325 3.78496 78.5488 4.04336 78.5078 4.02442C78.4668 4.00576 78.4333 4.03968 78.4333 4.09962C78.4333 4.27122 77.3304 5.43119 77.2048 5.39189C77.143 5.37238 77.1239 5.3902 77.1627 5.43119C77.2013 5.47246 77.002 5.74924 76.7195 6.04665C76.4371 6.34406 76.2156 6.62282 76.2271 6.66635C76.2385 6.70989 76.1784 6.74551 76.0932 6.74551C76.008 6.74551 75.9659 6.79301 75.9998 6.85096C76.0336 6.9092 75.9888 6.95642 75.9005 6.95642C75.8121 6.95642 75.7642 6.99854 75.7943 7.04999C75.8241 7.10145 75.7597 7.16817 75.6511 7.19842C75.5424 7.22867 75.4535 7.33157 75.4535 7.4277C75.4535 7.52353 75.4088 7.57273 75.3543 7.53682C75.2994 7.50092 75.255 7.54841 75.255 7.64227C75.255 7.73613 75.2102 7.78363 75.1554 7.74772C75.1008 7.71182 75.0561 7.72398 75.0561 7.77486C75.0561 7.82575 73.8112 9.20425 72.2896 10.8383C70.7681 12.4724 69.5348 13.8221 69.5492 13.8376C69.5636 13.8532 69.434 13.9818 69.2615 14.1234C69.089 14.2651 68.7467 14.6272 68.5007 14.9286C68.255 15.2297 67.9548 15.5364 67.8336 15.6099C67.7128 15.6837 67.6372 15.7844 67.6659 15.8335C67.6944 15.8827 67.6691 15.9232 67.6095 15.9232C67.4684 15.9232 66.8123 16.6198 66.8123 16.7699C66.8123 16.8332 66.7676 16.8555 66.713 16.8196C66.6584 16.784 66.6137 16.8015 66.6137 16.8589C66.6137 16.9163 66.1026 17.5078 65.4779 18.173C64.8531 18.8385 64.3689 19.4113 64.4019 19.4463C64.4347 19.4811 64.3846 19.5096 64.2901 19.5096C64.1959 19.5096 64.1464 19.5571 64.1802 19.6154C64.214 19.6733 64.1645 19.7208 64.0703 19.7208C63.976 19.7208 63.9188 19.742 63.9433 19.768C63.9678 19.7938 63.346 20.5178 62.5618 21.3767C61.7776 22.2355 61.0935 22.9856 61.0416 23.0435C60.9897 23.1018 60.6242 23.4922 60.2294 23.9112C59.2733 24.9267 59.3329 24.8636 58.7146 25.515C58.4156 25.8296 58.171 26.1293 58.171 26.1805C58.171 26.2317 58.1265 26.2441 58.0717 26.2082C58.0171 26.1726 57.9724 26.1836 57.9724 26.2328C57.9724 26.3662 57.2944 27.105 57.1723 27.105C57.1142 27.105 57.0945 27.1525 57.1283 27.2104C57.1619 27.2684 57.1198 27.3159 57.0346 27.3159C56.9495 27.3159 56.88 27.3899 56.88 27.4804C56.88 27.5709 56.8353 27.6155 56.7807 27.5796C56.7259 27.5437 56.6811 27.5697 56.6811 27.637C56.6811 27.7043 56.2119 28.2536 55.6385 28.8578C55.0648 29.4619 54.5956 30.0056 54.5956 30.0664C54.5956 30.1269 54.5508 30.1472 54.496 30.1113C54.4414 30.0757 54.3967 30.1218 54.3967 30.2142C54.3967 30.3064 54.2964 30.4248 54.1734 30.4774C54.0504 30.5297 53.9849 30.5758 54.0278 30.5795C54.0706 30.5832 53.8026 30.9097 53.4318 31.3052C53.0613 31.7004 52.6923 32.1276 52.6119 32.2545C52.5315 32.3812 52.4181 32.485 52.3601 32.485C52.211 32.485 51.2184 33.5708 51.2184 33.734C51.2184 33.808 51.1737 33.8394 51.1191 33.8035C51.0646 33.7676 51.0199 33.8123 51.0199 33.9027C51.0199 33.9932 50.9821 34.0673 50.9363 34.0673C50.8146 34.0673 49.53 35.4249 49.53 35.5532C49.53 35.6131 49.4853 35.6327 49.4307 35.5968C49.3759 35.5611 49.3309 35.5939 49.3304 35.6697C49.3298 35.7457 49.197 35.919 49.0349 36.055C48.873 36.1907 48.552 36.4961 48.3218 36.7335C48.0817 36.9809 47.8866 37.1118 47.8639 37.0403C47.8424 36.9716 47.7835 36.9156 47.733 36.9156C47.6821 36.9156 47.2461 36.5 46.7638 35.9925C46.2814 35.4848 45.6365 34.8201 45.3306 34.5157C45.0245 34.2109 44.7972 33.9618 44.8251 33.9618C44.9002 33.9618 44.6627 33.73 44.2419 33.3925C44.0375 33.2285 43.8993 33.045 43.9345 32.9842C43.9696 32.9237 43.9536 32.9036 43.8988 32.9398C43.8437 32.9757 43.6515 32.8186 43.4713 32.5904C43.2908 32.3623 43.1042 32.2011 43.0566 32.2325C43.0087 32.2639 42.982 32.2472 42.9969 32.1952C43.0118 32.1434 42.7156 31.7957 42.3384 31.4225C41.4009 30.4952 41.2664 30.3505 41.0389 30.0251C40.9305 29.8693 40.8107 29.7421 40.7732 29.7421C40.7357 29.7421 39.7087 28.6978 38.4914 27.4213C37.2742 26.1452 36.2403 25.1008 36.1937 25.1008C36.1474 25.1008 36.137 25.0533 36.1708 24.9951C36.2046 24.9371 36.1772 24.8896 36.1101 24.8896C36.0428 24.8896 35.7843 24.6643 35.5354 24.3887C35.2865 24.113 35.0483 23.8993 35.006 23.914C34.9639 23.9284 34.9293 23.8739 34.9293 23.7924C34.9293 23.711 34.784 23.5456 34.6064 23.4249C34.4289 23.3042 34.3157 23.2047 34.3549 23.2035C34.4291 23.2018 33.876 22.5689 33.7999 22.5689C33.7759 22.5689 33.1501 21.9282 32.4093 21.1448C30.8974 19.5467 30.8292 19.5147 30.2612 20.1426C30.0511 20.3747 29.8313 20.5647 29.7722 20.5647C29.7133 20.5647 29.6652 20.6026 29.6652 20.6493C29.6652 20.7813 28.2075 22.358 28.0853 22.358C28.0257 22.358 27.9767 22.4023 27.9767 22.4566C27.9767 22.5109 24.8591 25.8706 21.0486 29.923C17.2384 33.9751 14.0607 37.3708 13.9872 37.4692C13.8517 37.6495 14.0096 38.2868 14.1895 38.2868C14.2489 38.2868 15.045 39.0752 16.3169 40.3932C16.4864 40.5691 16.6765 40.713 16.7388 40.713C16.8013 40.713 16.8525 40.7512 16.8525 40.7972C16.8525 40.8436 17.087 41.1249 17.3739 41.422C19.6389 43.7697 20.372 44.5106 20.43 44.5106C20.4668 44.5106 20.6739 44.7125 20.89 44.959C21.1064 45.2055 21.605 45.7226 21.9979 46.108C22.3908 46.4933 22.7123 46.8407 22.7123 46.8803C22.7123 46.9683 22.974 47.2535 23.0549 47.2535C23.0869 47.2535 23.582 47.7519 24.1551 48.3612C24.7279 48.9704 25.2337 49.4688 25.2789 49.4688C25.3242 49.4688 25.481 49.611 25.6268 49.7852C25.773 49.9593 25.9393 50.1015 25.9968 50.1015C26.0543 50.1015 26.0767 50.1439 26.0466 50.1957C26.0165 50.2471 26.0921 50.3605 26.2146 50.4473C26.337 50.5341 27.1018 51.2985 27.9139 52.1467C28.7261 52.9945 29.4328 53.6883 29.4842 53.6883C29.5355 53.6883 29.5499 53.7358 29.5161 53.7937C29.4823 53.8517 29.506 53.8992 29.5688 53.8992C29.6316 53.8992 29.8896 54.1248 30.1422 54.4004C30.3948 54.6758 30.6399 54.8884 30.6868 54.8723C30.7339 54.8565 30.7472 54.8867 30.7163 54.9399C30.6855 54.9927 30.8052 55.1544 30.9823 55.2986C31.1593 55.4431 32.018 56.3028 32.8908 57.2092C33.7637 58.1156 34.5151 58.8574 34.5604 58.8574C34.6059 58.8574 34.6155 58.9046 34.5817 58.9628C34.5479 59.0208 34.5729 59.0683 34.637 59.0683C34.7014 59.0683 34.9237 59.254 35.1313 59.4813C35.339 59.7086 35.5349 59.8667 35.5668 59.833C35.5985 59.7991 35.6246 59.8585 35.6246 59.9648C35.6246 60.0713 35.6467 60.135 35.6736 60.1064C35.7005 60.0776 36.2994 60.6512 37.0045 61.3809C37.7096 62.1105 38.4475 62.8603 38.644 63.0472C38.8407 63.234 39.0017 63.4356 39.0017 63.4955C39.0017 63.5552 39.0398 63.5925 39.0866 63.5778C39.1995 63.543 40.1881 64.5241 40.1168 64.6001C40.0862 64.6326 40.1381 64.6592 40.2326 64.6592C40.3268 64.6592 40.3835 64.6948 40.3587 64.7383C40.334 64.7819 40.376 64.8786 40.4522 64.9535C40.5283 65.0281 40.5909 65.0739 40.5909 65.0547C40.5909 65.027 41.695 66.1053 42.1302 66.5579C42.8119 67.2672 43.6379 68.1343 44.2651 68.7995C44.6888 69.2493 45.0761 69.6171 45.1254 69.6171C45.1749 69.6171 45.2795 69.7121 45.3583 69.828C45.4371 69.9442 45.5587 70.0392 45.6285 70.0392C45.6985 70.0392 45.7557 70.1132 45.7557 70.2034C45.7557 70.2939 45.8004 70.3386 45.855 70.303C45.9096 70.267 45.9543 70.3035 45.9543 70.3841C45.9543 70.4644 46.2482 70.8113 46.6073 71.155C46.9663 71.4985 47.3206 71.8389 47.3946 71.9116C47.7364 72.2463 47.9204 72.0702 54.2053 65.3784C57.6482 61.7125 60.6159 58.5362 60.8001 58.3197C60.9841 58.1031 61.1496 57.9377 61.1678 57.9521C61.1858 57.9666 61.2788 57.8911 61.3743 57.7848C61.4699 57.6785 61.533 57.5914 61.5143 57.5914C61.496 57.5914 61.7752 57.2705 62.1351 56.8781C62.4952 56.486 62.812 56.1699 62.8394 56.1759C62.8666 56.1818 62.9672 56.0993 63.0627 55.9924C63.1583 55.8855 63.2155 55.7982 63.1897 55.7982C63.1639 55.7982 63.4277 55.5251 63.7761 55.1915C64.1246 54.8579 64.4139 54.5229 64.4192 54.4468C64.4243 54.371 64.4733 54.338 64.5278 54.3739C64.5824 54.4098 64.6271 54.3855 64.6271 54.3199C64.6271 54.1658 64.8781 53.8992 65.0232 53.8992C65.085 53.8992 65.1177 53.8636 65.0959 53.82C65.0741 53.7765 65.2913 53.5274 65.5785 53.2662C65.8657 53.0053 66.1045 52.7296 66.109 52.6536C66.1135 52.5775 66.1617 52.5447 66.2163 52.5806C66.2711 52.6165 66.3156 52.5934 66.3156 52.5295C66.3156 52.3782 66.7705 51.8951 66.9129 51.8951C66.9733 51.8951 66.9951 51.8476 66.9613 51.7896C66.9275 51.7314 66.9696 51.6839 67.0548 51.6839C67.14 51.6839 67.1985 51.6248 67.1847 51.5521C67.1711 51.4795 67.2158 51.4323 67.2842 51.4467C67.3524 51.4611 67.3971 51.4136 67.3835 51.3412C67.3697 51.2686 67.4144 51.2211 67.4828 51.2358C67.5509 51.2502 67.6068 51.188 67.6068 51.0975C67.6068 51.0071 67.6516 50.9624 67.7061 50.9983C67.761 51.0342 67.8054 51.0116 67.8054 50.9483C67.8054 50.7984 68.4616 50.1015 68.6027 50.1015C68.6623 50.1015 68.6836 50.054 68.6498 49.9961C68.616 49.9381 68.6607 49.8906 68.7491 49.8906C68.8374 49.8906 68.8821 49.8431 68.8483 49.7852C68.8148 49.7272 68.8569 49.6797 68.9418 49.6797C69.027 49.6797 69.0855 49.6204 69.0719 49.5477C69.0584 49.4753 69.1031 49.4278 69.1712 49.4423C69.2396 49.457 69.2953 49.3948 69.2953 49.3043C69.2953 49.2138 69.34 49.1692 69.3948 49.2051C69.4494 49.241 69.4941 49.2101 69.4941 49.1369C69.4941 49.0637 70.9691 47.4531 72.7717 45.5578C74.5746 43.6625 76.0495 42.0553 76.0495 41.9863C76.0495 41.9173 76.0943 41.8905 76.1488 41.9261C76.2034 41.962 76.2481 41.9145 76.2481 41.8206C76.2481 41.7268 76.2928 41.6793 76.3474 41.7152C76.402 41.7511 76.4467 41.7036 76.4467 41.6097C76.4467 41.5159 76.4802 41.4608 76.5212 41.487C76.6184 41.5495 76.8505 41.2826 76.772 41.199C76.7387 41.1639 76.7887 41.1351 76.883 41.1351C76.9772 41.1351 77.0267 41.0876 76.9929 41.0296C76.9594 40.9717 77.0038 40.9242 77.0925 40.9242C77.1808 40.9242 77.2253 40.8767 77.1918 40.8187C77.158 40.7605 77.2075 40.713 77.3017 40.713C77.3959 40.713 77.4462 40.6844 77.4132 40.6497C77.336 40.5674 77.7641 40.0936 77.862 40.1529C77.903 40.1778 77.9365 40.1213 77.9365 40.0274C77.9365 39.9335 77.9813 39.8861 78.0358 39.922C78.0907 39.9579 78.1351 39.9104 78.1351 39.8165C78.1351 39.7226 78.1687 39.6661 78.2097 39.6907C78.3079 39.7501 78.7359 39.2765 78.6585 39.1943C78.6257 39.1592 78.6758 39.1306 78.7702 39.1306C78.8645 39.1306 78.914 39.0832 78.8802 39.0252C78.8464 38.9672 78.8959 38.9197 78.9901 38.9197C79.0843 38.9197 79.1413 38.8983 79.1166 38.872C79.0918 38.8457 81.9895 35.7104 85.5559 31.9051C89.1226 28.0995 92.0405 24.9405 92.0405 24.8851C92.0405 24.8297 92.0861 24.7842 92.1414 24.7842C92.2732 24.7842 93.7292 23.238 93.7292 23.0981C93.7292 23.039 93.7745 22.9909 93.8301 22.9909C93.9717 22.9909 95.4177 21.4391 95.4177 21.2873C95.4177 21.2186 95.443 21.1892 95.4741 21.2223C95.5497 21.3029 97.1061 19.6561 97.1061 19.4955C97.1061 19.426 97.1314 19.396 97.1623 19.4285C97.2602 19.5328 98 18.683 98 18.4662C98 18.2586 95.887 15.9232 95.6988 15.9232C95.6469 15.9232 95.6322 15.8757 95.666 15.8177C95.6996 15.7595 95.6575 15.7123 95.5726 15.7123C95.4874 15.7123 95.4177 15.6331 95.4177 15.5364C95.4177 15.4397 95.3956 15.3838 95.3687 15.4123C95.3069 15.4782 93.5304 13.6066 93.5304 13.4757C93.5304 13.4226 93.4857 13.4082 93.4311 13.4441C93.3765 13.48 93.3318 13.4613 93.3318 13.4025C93.3318 13.2634 92.8561 12.7585 92.7254 12.7585C92.6701 12.7585 92.6525 12.711 92.6863 12.653C92.7199 12.5948 92.6954 12.5476 92.6312 12.5476C92.5673 12.5476 91.7155 11.693 90.7386 10.6486C89.7614 9.60429 88.9147 8.74993 88.8567 8.74993C88.7986 8.74993 88.7715 8.71431 88.7962 8.67078C88.8551 8.56759 88.6038 8.32106 88.5253 8.40446C88.492 8.4398 88.4648 8.38156 88.4648 8.27526C88.4648 8.16868 88.4374 8.11101 88.4036 8.14691C88.3701 8.18253 88.0509 7.88201 87.6947 7.47887C87.3386 7.07544 86.9862 6.74551 86.9119 6.74551C86.8374 6.74551 86.7764 6.68219 86.7764 6.60472C86.7764 6.44301 85.3462 4.95228 85.191 4.95228C85.1343 4.95228 85.088 4.90704 85.088 4.85191C85.088 4.72074 83.6173 3.15904 83.494 3.15904C83.4419 3.15904 83.3995 3.08497 83.3995 2.9945C83.3995 2.90403 83.3548 2.85937 83.3 2.89527C83.2454 2.93117 83.2007 2.90743 83.2007 2.84297C83.2007 2.73469 82.3169 1.77121 81.821 1.33923C81.4654 1.02938 81.2711 1.12182 80.4379 1.99851Z" fill="#048434"/>
<path fill-rule="evenodd" clip-rule="evenodd" d="M72.0021 2.58291C71.8245 2.78052 71.6794 2.97051 71.6794 3.00528C71.6794 3.08896 71.4127 3.36998 71.3334 3.36998C71.2525 3.36998 70.1981 4.51524 69.9426 4.88107C69.834 5.03628 69.7102 5.16322 69.6676 5.16322C69.5782 5.16322 68.3023 6.49931 68.3023 6.59289C68.3023 6.67374 68.0361 6.95645 67.96 6.95645C67.8719 6.95645 66.6139 8.31149 66.6139 8.40648C66.6139 8.45171 66.4941 8.58317 66.348 8.69852C66.0038 8.96992 64.9255 10.0897 64.9255 10.1757C64.9255 10.2594 64.6609 10.5432 64.5829 10.5432C64.4948 10.5432 63.2368 11.898 63.2368 11.993C63.2368 12.0385 63.1164 12.1699 62.969 12.285C62.6232 12.5558 61.5563 13.6892 61.3013 14.0565C61.1927 14.2128 61.0689 14.3409 61.0263 14.3409C60.9369 14.3409 59.6611 15.677 59.6611 15.7705C59.6611 15.8047 59.5974 15.9006 59.5192 15.9834C59.4412 16.0663 59.3509 16.1341 59.3187 16.1341C59.2423 16.1341 57.9726 17.4826 57.9726 17.5638C57.9726 17.6446 57.7064 17.9273 57.6303 17.9273C57.5539 17.9273 56.2842 19.2759 56.2842 19.357C56.2842 19.4379 56.018 19.7209 55.9419 19.7209C55.8535 19.7209 54.5958 21.0756 54.5958 21.1706C54.5958 21.2158 54.476 21.3473 54.3298 21.4626C53.9854 21.7343 52.9071 22.8539 52.9071 22.9398C52.9071 23.0238 52.6427 23.3073 52.5647 23.3073C52.4766 23.3073 51.2186 24.6624 51.2186 24.7574C51.2186 24.8026 51.0991 24.9341 50.9527 25.0494C50.6144 25.3163 49.5302 26.4398 49.5302 26.5237C49.5302 26.6043 49.0614 27.105 48.9861 27.105C48.9126 27.105 47.8415 28.2426 47.8415 28.3207C47.8415 28.4052 47.3679 28.8982 47.2868 28.8982C47.2495 28.8982 47.1388 28.9969 47.0405 29.1173C46.8617 29.3364 46.8614 29.3361 46.4826 28.8801C46.2744 28.6291 45.8243 28.1307 45.4828 27.7725C45.1413 27.4143 44.8618 27.0965 44.8618 27.0665C44.8618 27.0366 43.2418 25.2843 41.2613 23.1725C39.2811 21.0606 37.5719 19.2063 37.4636 19.052C37.355 18.8976 37.2275 18.7712 37.1807 18.7712C37.1335 18.7712 36.9698 18.629 36.8168 18.4549C36.3613 17.937 35.4262 18.3924 35.4262 19.132C35.4262 19.4336 36.8809 21.1276 37.0465 21.0188C37.1011 20.9832 37.1144 21.0072 37.0763 21.0728C37.0356 21.1423 37.4607 21.6758 38.1038 22.3631C38.707 23.0074 39.2005 23.5556 39.2005 23.5816C39.2005 23.6794 40.2935 24.7842 40.3901 24.7842C40.446 24.7842 40.4918 24.8583 40.4918 24.9488C40.4918 25.0392 40.5362 25.0839 40.5911 25.048C40.6456 25.0121 40.6903 25.0313 40.6903 25.0904C40.6903 25.1495 42.0295 26.6238 43.6661 28.3667C46.7594 31.6609 46.9247 31.7974 47.2458 31.3245C47.3243 31.2085 47.4252 31.1136 47.4696 31.1136C47.562 31.1136 48.2389 30.4147 48.2389 30.3191C48.2389 30.2459 49.0479 29.4128 49.5672 28.9511C49.7628 28.7769 49.9242 28.5977 49.9252 28.5528C49.9281 28.4459 50.7927 27.5276 50.8933 27.5248C50.9357 27.5234 51.1044 27.3524 51.2684 27.1443C51.7028 26.5927 52.4875 25.7336 52.5565 25.7336C52.6315 25.7336 53.3045 25.0225 53.3045 24.9431C53.3045 24.8546 54.181 23.9409 54.2702 23.9367C54.3125 23.9344 54.526 23.7156 54.7446 23.4501C54.9631 23.1846 55.3573 22.7473 55.6206 22.4781C55.8836 22.209 56.2637 21.8078 56.4647 21.5865C57.223 20.7525 57.6705 20.288 58.1089 19.8789C58.3578 19.6468 58.563 19.4184 58.5652 19.3711C58.5689 19.2779 59.3235 18.4899 59.8969 17.9802C60.0925 17.8061 60.2539 17.6268 60.2549 17.5819C60.2573 17.488 61.1171 16.5562 61.2015 16.5562C61.2739 16.5562 61.9457 15.8426 61.9457 15.7657C61.9457 15.6886 62.8172 14.7627 62.8899 14.7627C62.9623 14.7627 63.6342 14.0494 63.6342 13.9722C63.6342 13.8829 64.5115 12.9697 64.5999 12.9672C64.6422 12.966 64.811 12.7947 64.975 12.5869C65.4581 11.9737 66.1973 11.1762 66.2846 11.1739C66.3291 11.1725 66.4997 11.0004 66.6634 10.7911C66.941 10.4369 67.455 9.87997 68.3705 8.94165C68.5789 8.72792 68.9579 8.32449 69.213 8.04489C69.468 7.76557 69.8478 7.36158 70.057 7.14728C70.2665 6.93299 70.6884 6.48206 70.9946 6.14507C71.3007 5.80808 71.7133 5.38995 71.911 5.21608C72.1091 5.04193 72.272 4.86269 72.2731 4.81774C72.2757 4.72134 73.1366 3.79178 73.2233 3.79178C73.6796 3.79178 73.6447 3.06832 73.1659 2.60072C72.6745 2.12068 72.4213 2.117 72.0021 2.58291ZM2.98533e-06 44.5635C0.000535362 44.9695 0.0183704 45.1227 0.0399316 44.9039C0.0614929 44.6851 0.0609604 44.3529 0.039133 44.1655C0.0173056 43.9783 -0.000263203 44.1573 2.98533e-06 44.5635Z" fill="#049CDC"/>
<path fill-rule="evenodd" clip-rule="evenodd" d="M66.1353 11.5539C59.9153 18.1682 55.2312 23.0696 55.1694 23.0291C55.1071 22.9881 55.0901 23.0071 55.1287 23.0738C55.1811 23.164 48.1676 30.7455 47.1721 31.675C46.9698 31.8639 46.9567 31.8571 46.4129 31.2792C46.1084 30.9561 45.8342 30.6917 45.803 30.6917C45.7298 30.6917 45.2592 30.1919 45.2592 30.1139C45.2592 30.024 44.1828 28.8988 44.0944 28.896C44.0521 28.8948 43.8836 28.7218 43.7196 28.512C43.5559 28.302 43.1537 27.8528 42.8257 27.5138C42.4981 27.1748 42.1462 26.8076 42.0437 26.6979C41.9412 26.5882 41.5669 26.1899 41.2118 25.8127C40.8567 25.4356 40.4769 25.0321 40.3675 24.9162C40.2583 24.8 39.8782 24.3966 39.5231 24.0195C39.1683 23.6423 38.7882 23.2389 38.679 23.1227C38.5696 23.0068 38.1898 22.6034 37.8347 22.2262C37.4796 21.8491 37.104 21.4513 36.9999 21.3428C36.8959 21.2339 36.5251 20.8246 36.1755 20.4327C35.8263 20.0412 35.5032 19.7209 35.4574 19.7209C35.4116 19.7209 35.2851 19.5936 35.1765 19.4384C34.9253 19.0788 33.8672 17.9273 33.7884 17.9273C33.7554 17.9273 33.6143 17.8061 33.4748 17.6576C33.0824 17.2412 32.7042 17.3319 32.6637 17.8524C32.6358 18.2129 32.68 18.2985 33.1107 18.7198C33.3737 18.9768 33.6217 19.2241 33.6619 19.2694C34.4041 20.1005 35.1433 20.8726 35.3557 21.038C35.5037 21.1534 35.6248 21.2848 35.6248 21.33C35.6248 21.425 36.8828 22.7801 36.9709 22.7801C37.047 22.7801 37.3132 23.0628 37.3132 23.1436C37.3132 23.2248 38.583 24.5733 38.6593 24.5733C38.7355 24.5733 39.0019 24.856 39.0019 24.9369C39.0019 25.018 40.2714 26.3665 40.3481 26.3665C40.4266 26.3665 40.6904 26.6507 40.6904 26.7355C40.6904 26.7725 41.0367 27.1556 41.4602 27.5867C41.8834 28.0179 42.2683 28.4128 42.3154 28.4645C42.403 28.5601 43.8202 30.0667 43.9781 30.2315C44.026 30.2815 44.3715 30.6547 44.7463 31.061C45.1208 31.4669 45.5124 31.8774 45.6164 31.9733C45.7205 32.0688 45.9843 32.364 46.2029 32.6286C46.9868 33.5791 45.3157 35.1885 62.5016 16.9339C77.0772 1.45178 77.7382 0.733408 77.7382 0.372103C77.7382 0.00457889 77.7281 -0.00559881 77.3658 0.00118626C77.0062 0.00768861 76.6178 0.407442 66.1353 11.5539ZM76.5547 6.15298L76.3152 6.48177L76.5992 6.19511C76.7554 6.03707 76.8635 5.88921 76.839 5.86603C76.8145 5.84285 76.6868 5.97205 76.5547 6.15298ZM90.9923 10.9384C91.317 11.2983 91.6008 11.5731 91.6228 11.5497C91.6654 11.5044 91.1882 10.989 90.6936 10.5457C90.5331 10.4018 90.6675 10.5785 90.9923 10.9384ZM37.1147 25.9775C37.1147 25.9959 37.26 26.15 37.4375 26.3205L37.7602 26.6303L37.4684 26.2874C37.1966 25.9679 37.1147 25.8961 37.1147 25.9775ZM52.4607 32.2732C52.3617 32.3897 52.3129 32.485 52.3526 32.485C52.4572 32.485 52.7404 32.1672 52.6867 32.1101C52.6617 32.0835 52.56 32.157 52.4607 32.2732ZM43.6701 32.7878C43.6701 32.833 43.7819 32.9817 43.9184 33.118C44.055 33.2542 44.1665 33.3359 44.1665 33.2992C44.1665 33.2627 44.055 33.1143 43.9184 32.9693C43.7819 32.8242 43.6701 32.7425 43.6701 32.7878ZM20.4281 44.5548C20.4281 44.6659 20.7273 44.9667 20.7811 44.9096C20.8064 44.8827 20.7372 44.775 20.6275 44.6695C20.5178 44.5641 20.4281 44.5126 20.4281 44.5548ZM39.1012 63.5185C39.1012 63.5925 39.5684 64.1187 39.8213 64.3293C40.1332 64.5891 40.0044 64.3963 39.5482 63.9208C39.3022 63.6646 39.1012 63.4834 39.1012 63.5185Z" fill="#0E5404"/>
<path fill-rule="evenodd" clip-rule="evenodd" d="M62.939 8.69705C62.6979 8.95827 62.5227 9.17172 62.5501 9.17172C62.5773 9.17172 62.7972 8.95827 63.0383 8.69705C63.2795 8.43611 63.4546 8.22238 63.4272 8.22238C63.4001 8.22238 63.1802 8.43611 62.939 8.69705ZM61.2506 10.4903C61.0092 10.7515 60.8343 10.9652 60.8614 10.9652C60.8889 10.9652 61.1085 10.7515 61.3499 10.4903C61.5911 10.2293 61.7662 10.0156 61.7388 10.0156C61.7114 10.0156 61.4918 10.2293 61.2506 10.4903ZM59.5619 12.2838C59.3207 12.5447 59.1456 12.7585 59.173 12.7585C59.2004 12.7585 59.42 12.5447 59.6612 12.2838C59.9026 12.0226 60.0775 11.8091 60.0504 11.8091C60.0229 11.8091 59.8033 12.0226 59.5619 12.2838ZM39.9704 79.2912C40.0932 79.3163 40.2944 79.3163 40.4174 79.2912C40.5401 79.266 40.4397 79.2454 40.1938 79.2454C39.9481 79.2454 39.8475 79.266 39.9704 79.2912ZM43.099 79.2895C43.1945 79.316 43.351 79.316 43.4466 79.2895C43.5422 79.2629 43.4642 79.2411 43.2728 79.2411C43.0817 79.2411 43.0034 79.2629 43.099 79.2895ZM41.3112 88.8929C41.5159 88.9158 41.8513 88.9158 42.056 88.8929C42.261 88.8703 42.0933 88.8516 41.6836 88.8516C41.274 88.8516 41.1063 88.8703 41.3112 88.8929Z" fill="#0C7860"/>
</svg>
